<svg width="116" height="177" viewBox="0 0 116 177" fill="none" xmlns="http://www.w3.org/2000/svg">
<ellipse cx="40" cy="16.5" rx="17" ry="16.5" fill="#2C8DC9"/>
<ellipse cx="77" cy="16.5" rx="17" ry="16.5" fill="#2C8DC9"/>
<ellipse cx="40" cy="51.5" rx="17" ry="16.5" fill="#2C8DC9"/>
<ellipse cx="77" cy="51.5" rx="17" ry="16.5" fill="#2C8DC9"/>
<path d="M17.7493 128.896C15.5591 128.896 13.5111 128.697 11.6053 128.299C9.728 127.929 8.14933 127.431 6.86933 126.805C5.58933 126.18 4.53689 125.582 3.712 125.013C2.91556 124.444 2.24711 123.876 1.70667 123.307L2.77333 112.939C3.93956 114.503 5.504 115.868 7.46667 117.035C9.42933 118.172 11.5484 118.741 13.824 118.741C16.0996 118.741 17.7351 118.5 18.7307 118.016C19.7547 117.532 20.2667 116.651 20.2667 115.371C20.2667 114.005 19.6836 112.839 18.5173 111.872C17.3796 110.905 15.4027 109.739 12.5867 108.373C11.5627 107.861 10.6951 107.406 9.984 107.008C9.27289 106.581 8.32 105.899 7.12533 104.96C5.95911 103.993 5.00622 102.997 4.26667 101.973C3.52711 100.921 2.87289 99.584 2.304 97.9627C1.73511 96.3129 1.45067 94.5493 1.45067 92.672C1.45067 82.5173 7.18222 77.44 18.6453 77.44C20.4658 77.44 22.1724 77.6391 23.7653 78.0373C25.3867 78.4071 26.6524 78.8196 27.5627 79.2747C28.4729 79.7298 29.2978 80.2702 30.0373 80.896C30.8053 81.4933 31.2889 81.92 31.488 82.176C31.6871 82.4036 31.8293 82.5884 31.9147 82.7307L29.7813 90.9653C28.672 89.6569 27.2782 88.6898 25.6 88.064C23.9502 87.4098 22.3716 87.0827 20.864 87.0827C17.2231 87.0827 15.4027 88.2204 15.4027 90.496C15.4027 91.0933 15.5164 91.6338 15.744 92.1173C15.9716 92.6009 16.3413 93.0418 16.8533 93.44C17.3653 93.8382 17.8347 94.1796 18.2613 94.464C18.7164 94.7484 19.328 95.104 20.096 95.5307C20.8924 95.9289 21.4898 96.256 21.888 96.512C26.0409 98.2756 29.0844 100.366 31.0187 102.784C32.9813 105.202 33.9627 108.146 33.9627 111.616C33.9627 117.248 32.5689 121.543 29.7813 124.501C27.0222 127.431 23.0116 128.896 17.7493 128.896ZM62.377 128L60.457 120.021H48.3397L46.7183 128H34.1743L47.1877 81.4507L46.1637 77.9947H63.785L78.0357 128H62.377ZM53.8437 92.672L50.089 111.317H58.3663L53.8437 92.672ZM87.0147 128V89.3013H77.0307V77.9947H111.42V89.3013H101.436V128H87.0147Z" fill="#040204"/>
</svg>
